<mxfile host="app.diagrams.net" agent="Mozilla/5.0 (Windows NT 10.0; Win64; x64) AppleWebKit/537.36 (KHTML, like Gecko) Chrome/129.0.0.0 Safari/537.36" version="24.7.16">
  <diagram id="9hew778pHyePlYy8zM_X" name="Page-1">
    <mxGraphModel dx="794" dy="446" grid="1" gridSize="10" guides="1" tooltips="1" connect="1" arrows="1" fold="1" page="1" pageScale="1" pageWidth="850" pageHeight="1100" math="1" shadow="0">
      <root>
        <mxCell id="0" />
        <mxCell id="1" parent="0" />
        <mxCell id="a9XnlPEAxyjvLuWUpJy2-1" value="&lt;font color=&quot;#000000&quot; style=&quot;font-size: 16px;&quot;&gt;$$B$$&lt;/font&gt;" style="rounded=0;whiteSpace=wrap;html=1;fillColor=#66B2FF;strokeColor=default;fontColor=#ffffff;" parent="1" vertex="1">
          <mxGeometry x="230" y="190" width="60" height="60" as="geometry" />
        </mxCell>
        <mxCell id="a9XnlPEAxyjvLuWUpJy2-2" value="" style="rounded=0;whiteSpace=wrap;html=1;fillColor=#FFFFFF;" parent="1" vertex="1">
          <mxGeometry x="290" y="190" width="60" height="60" as="geometry" />
        </mxCell>
        <mxCell id="a9XnlPEAxyjvLuWUpJy2-3" value="" style="rounded=0;whiteSpace=wrap;html=1;fillColor=#FFFFFF;fontColor=#000000;strokeColor=#000000;" parent="1" vertex="1">
          <mxGeometry x="470" y="370" width="60" height="60" as="geometry" />
        </mxCell>
        <mxCell id="a9XnlPEAxyjvLuWUpJy2-4" value="" style="rounded=0;whiteSpace=wrap;html=1;fillColor=#FFFFFF;" parent="1" vertex="1">
          <mxGeometry x="230" y="250" width="60" height="60" as="geometry" />
        </mxCell>
        <mxCell id="a9XnlPEAxyjvLuWUpJy2-5" value="" style="rounded=0;whiteSpace=wrap;html=1;fillColor=#FFFFFF;strokeColor=#36393d;gradientColor=none;" parent="1" vertex="1">
          <mxGeometry x="290" y="250" width="60" height="60" as="geometry" />
        </mxCell>
        <mxCell id="a9XnlPEAxyjvLuWUpJy2-6" value="&lt;span style=&quot;color: rgb(0, 0, 0); font-size: 16px;&quot;&gt;$$D$$&lt;/span&gt;" style="rounded=0;whiteSpace=wrap;html=1;fillColor=#E51400;strokeColor=#000000;fontColor=#ffffff;" parent="1" vertex="1">
          <mxGeometry x="350" y="250" width="60" height="60" as="geometry" />
        </mxCell>
        <mxCell id="a9XnlPEAxyjvLuWUpJy2-7" value="&lt;span style=&quot;color: rgb(0, 0, 0); font-size: 16px;&quot;&gt;$$D$$&lt;/span&gt;" style="rounded=0;whiteSpace=wrap;html=1;fillColor=#E51400;strokeColor=#000000;fontColor=#ffffff;" parent="1" vertex="1">
          <mxGeometry x="230" y="310" width="60" height="60" as="geometry" />
        </mxCell>
        <mxCell id="a9XnlPEAxyjvLuWUpJy2-8" value="" style="rounded=0;whiteSpace=wrap;html=1;fillColor=#FFFFFF;strokeColor=#000000;fontColor=#ffffff;" parent="1" vertex="1">
          <mxGeometry x="350" y="310" width="60" height="60" as="geometry" />
        </mxCell>
        <mxCell id="a9XnlPEAxyjvLuWUpJy2-9" value="" style="rounded=0;whiteSpace=wrap;html=1;fillColor=#FFFFFF;" parent="1" vertex="1">
          <mxGeometry x="290" y="310" width="60" height="60" as="geometry" />
        </mxCell>
        <mxCell id="a9XnlPEAxyjvLuWUpJy2-10" value="" style="rounded=0;whiteSpace=wrap;html=1;fillColor=#FFFFFF;" parent="1" vertex="1">
          <mxGeometry x="410" y="190" width="60" height="60" as="geometry" />
        </mxCell>
        <mxCell id="a9XnlPEAxyjvLuWUpJy2-11" value="" style="rounded=0;whiteSpace=wrap;html=1;fillColor=#FFFFFF;" parent="1" vertex="1">
          <mxGeometry x="410" y="250" width="60" height="60" as="geometry" />
        </mxCell>
        <mxCell id="a9XnlPEAxyjvLuWUpJy2-12" value="" style="rounded=0;whiteSpace=wrap;html=1;fillColor=#FFFFFF;" parent="1" vertex="1">
          <mxGeometry x="410" y="310" width="60" height="60" as="geometry" />
        </mxCell>
        <mxCell id="a9XnlPEAxyjvLuWUpJy2-13" value="" style="rounded=0;whiteSpace=wrap;html=1;fillColor=#FFFFFF;" parent="1" vertex="1">
          <mxGeometry x="230" y="370" width="60" height="60" as="geometry" />
        </mxCell>
        <mxCell id="a9XnlPEAxyjvLuWUpJy2-15" value="" style="rounded=0;whiteSpace=wrap;html=1;fillColor=#FFFFFF;fontColor=#000000;strokeColor=default;" parent="1" vertex="1">
          <mxGeometry x="290" y="370" width="60" height="60" as="geometry" />
        </mxCell>
        <mxCell id="a9XnlPEAxyjvLuWUpJy2-16" value="" style="rounded=0;whiteSpace=wrap;html=1;fillColor=#FFFFFF;fontColor=#ffffff;strokeColor=#000000;" parent="1" vertex="1">
          <mxGeometry x="410" y="370" width="60" height="60" as="geometry" />
        </mxCell>
        <mxCell id="a9XnlPEAxyjvLuWUpJy2-18" value="" style="rounded=0;whiteSpace=wrap;html=1;fillColor=#E51400;fontColor=#ffffff;strokeColor=#000000;" parent="1" vertex="1">
          <mxGeometry x="90" y="430" width="20" height="20" as="geometry" />
        </mxCell>
        <mxCell id="a9XnlPEAxyjvLuWUpJy2-19" value="" style="rounded=0;whiteSpace=wrap;html=1;fillColor=#66B2FF;fontColor=#ffffff;strokeColor=#000000;" parent="1" vertex="1">
          <mxGeometry x="90" y="350" width="20" height="20" as="geometry" />
        </mxCell>
        <mxCell id="a9XnlPEAxyjvLuWUpJy2-20" value="" style="rounded=0;whiteSpace=wrap;html=1;fillColor=#00FF00;fontColor=#ffffff;strokeColor=#000000;" parent="1" vertex="1">
          <mxGeometry x="90" y="390" width="20" height="20" as="geometry" />
        </mxCell>
        <mxCell id="a9XnlPEAxyjvLuWUpJy2-21" value="" style="shape=table;startSize=0;container=1;collapsible=0;childLayout=tableLayout;fillColor=none;" parent="1" vertex="1">
          <mxGeometry x="70" y="340" width="120" height="120" as="geometry" />
        </mxCell>
        <mxCell id="a9XnlPEAxyjvLuWUpJy2-22" value="" style="shape=tableRow;horizontal=0;startSize=0;swimlaneHead=0;swimlaneBody=0;strokeColor=inherit;top=0;left=0;bottom=0;right=0;collapsible=0;dropTarget=0;fillColor=none;points=[[0,0.5],[1,0.5]];portConstraint=eastwest;" parent="a9XnlPEAxyjvLuWUpJy2-21" vertex="1">
          <mxGeometry width="120" height="40" as="geometry" />
        </mxCell>
        <mxCell id="a9XnlPEAxyjvLuWUpJy2-23" value="" style="shape=partialRectangle;html=1;whiteSpace=wrap;connectable=0;strokeColor=inherit;overflow=hidden;fillColor=none;top=0;left=0;bottom=0;right=0;pointerEvents=1;" parent="a9XnlPEAxyjvLuWUpJy2-22" vertex="1">
          <mxGeometry width="60" height="40" as="geometry">
            <mxRectangle width="60" height="40" as="alternateBounds" />
          </mxGeometry>
        </mxCell>
        <mxCell id="a9XnlPEAxyjvLuWUpJy2-24" value="Base" style="shape=partialRectangle;html=1;whiteSpace=wrap;connectable=0;strokeColor=inherit;overflow=hidden;fillColor=none;top=0;left=0;bottom=0;right=0;pointerEvents=1;" parent="a9XnlPEAxyjvLuWUpJy2-22" vertex="1">
          <mxGeometry x="60" width="60" height="40" as="geometry">
            <mxRectangle width="60" height="40" as="alternateBounds" />
          </mxGeometry>
        </mxCell>
        <mxCell id="a9XnlPEAxyjvLuWUpJy2-25" value="" style="shape=tableRow;horizontal=0;startSize=0;swimlaneHead=0;swimlaneBody=0;strokeColor=inherit;top=0;left=0;bottom=0;right=0;collapsible=0;dropTarget=0;fillColor=none;points=[[0,0.5],[1,0.5]];portConstraint=eastwest;" parent="a9XnlPEAxyjvLuWUpJy2-21" vertex="1">
          <mxGeometry y="40" width="120" height="40" as="geometry" />
        </mxCell>
        <mxCell id="a9XnlPEAxyjvLuWUpJy2-26" value="" style="shape=partialRectangle;html=1;whiteSpace=wrap;connectable=0;strokeColor=inherit;overflow=hidden;fillColor=none;top=0;left=0;bottom=0;right=0;pointerEvents=1;" parent="a9XnlPEAxyjvLuWUpJy2-25" vertex="1">
          <mxGeometry width="60" height="40" as="geometry">
            <mxRectangle width="60" height="40" as="alternateBounds" />
          </mxGeometry>
        </mxCell>
        <mxCell id="a9XnlPEAxyjvLuWUpJy2-27" value="Goal" style="shape=partialRectangle;html=1;whiteSpace=wrap;connectable=0;strokeColor=inherit;overflow=hidden;fillColor=none;top=0;left=0;bottom=0;right=0;pointerEvents=1;" parent="a9XnlPEAxyjvLuWUpJy2-25" vertex="1">
          <mxGeometry x="60" width="60" height="40" as="geometry">
            <mxRectangle width="60" height="40" as="alternateBounds" />
          </mxGeometry>
        </mxCell>
        <mxCell id="a9XnlPEAxyjvLuWUpJy2-31" value="" style="shape=tableRow;horizontal=0;startSize=0;swimlaneHead=0;swimlaneBody=0;strokeColor=inherit;top=0;left=0;bottom=0;right=0;collapsible=0;dropTarget=0;fillColor=none;points=[[0,0.5],[1,0.5]];portConstraint=eastwest;" parent="a9XnlPEAxyjvLuWUpJy2-21" vertex="1">
          <mxGeometry y="80" width="120" height="40" as="geometry" />
        </mxCell>
        <mxCell id="a9XnlPEAxyjvLuWUpJy2-32" value="" style="shape=partialRectangle;html=1;whiteSpace=wrap;connectable=0;strokeColor=inherit;overflow=hidden;fillColor=none;top=0;left=0;bottom=0;right=0;pointerEvents=1;" parent="a9XnlPEAxyjvLuWUpJy2-31" vertex="1">
          <mxGeometry width="60" height="40" as="geometry">
            <mxRectangle width="60" height="40" as="alternateBounds" />
          </mxGeometry>
        </mxCell>
        <mxCell id="a9XnlPEAxyjvLuWUpJy2-33" value="Danger" style="shape=partialRectangle;html=1;whiteSpace=wrap;connectable=0;strokeColor=inherit;overflow=hidden;fillColor=none;top=0;left=0;bottom=0;right=0;pointerEvents=1;" parent="a9XnlPEAxyjvLuWUpJy2-31" vertex="1">
          <mxGeometry x="60" width="60" height="40" as="geometry">
            <mxRectangle width="60" height="40" as="alternateBounds" />
          </mxGeometry>
        </mxCell>
        <mxCell id="a9XnlPEAxyjvLuWUpJy2-34" value="&lt;font style=&quot;font-size: 16px;&quot;&gt;$$D$$&lt;/font&gt;" style="rounded=0;whiteSpace=wrap;html=1;fillColor=#E51400;" parent="1" vertex="1">
          <mxGeometry x="470" y="190" width="60" height="60" as="geometry" />
        </mxCell>
        <mxCell id="a9XnlPEAxyjvLuWUpJy2-36" value="" style="rounded=0;whiteSpace=wrap;html=1;fillColor=#FFFFFF;" parent="1" vertex="1">
          <mxGeometry x="470" y="310" width="60" height="60" as="geometry" />
        </mxCell>
        <mxCell id="a9XnlPEAxyjvLuWUpJy2-37" value="&lt;font color=&quot;#000000&quot; style=&quot;font-size: 16px;&quot;&gt;$$G_2$$&lt;/font&gt;" style="rounded=0;whiteSpace=wrap;html=1;fillColor=#00FF00;fontColor=#ffffff;strokeColor=#000000;" parent="1" vertex="1">
          <mxGeometry x="470" y="250" width="60" height="60" as="geometry" />
        </mxCell>
        <mxCell id="a9XnlPEAxyjvLuWUpJy2-38" value="" style="rounded=0;whiteSpace=wrap;html=1;fillColor=#FFFFFF;" parent="1" vertex="1">
          <mxGeometry x="290" y="430" width="60" height="60" as="geometry" />
        </mxCell>
        <mxCell id="a9XnlPEAxyjvLuWUpJy2-39" value="&lt;span style=&quot;font-size: 16px;&quot;&gt;$$D$$&lt;/span&gt;" style="rounded=0;whiteSpace=wrap;html=1;fillColor=#E51400;" parent="1" vertex="1">
          <mxGeometry x="350" y="430" width="60" height="60" as="geometry" />
        </mxCell>
        <mxCell id="a9XnlPEAxyjvLuWUpJy2-40" value="&lt;font style=&quot;font-size: 16px;&quot;&gt;$$G_1$$&lt;/font&gt;" style="rounded=0;whiteSpace=wrap;html=1;fillColor=#00FF00;fontColor=#000000;strokeColor=default;" parent="1" vertex="1">
          <mxGeometry x="230" y="430" width="60" height="60" as="geometry" />
        </mxCell>
        <mxCell id="kJ3I6nF7hc7VAcNh-NyY-1" value="" style="endArrow=classic;html=1;rounded=0;" parent="1" edge="1">
          <mxGeometry width="50" height="50" relative="1" as="geometry">
            <mxPoint x="110" y="279" as="sourcePoint" />
            <mxPoint x="110" y="214" as="targetPoint" />
          </mxGeometry>
        </mxCell>
        <mxCell id="kJ3I6nF7hc7VAcNh-NyY-2" value="" style="endArrow=classic;html=1;rounded=0;" parent="1" edge="1">
          <mxGeometry width="50" height="50" relative="1" as="geometry">
            <mxPoint x="110" y="279" as="sourcePoint" />
            <mxPoint x="170" y="279" as="targetPoint" />
          </mxGeometry>
        </mxCell>
        <mxCell id="kJ3I6nF7hc7VAcNh-NyY-3" value="&lt;font style=&quot;font-size: 14px;&quot;&gt;$$Y$$&lt;/font&gt;" style="text;html=1;align=center;verticalAlign=middle;resizable=0;points=[];autosize=1;strokeColor=none;fillColor=none;" parent="1" vertex="1">
          <mxGeometry x="60" y="212" width="60" height="30" as="geometry" />
        </mxCell>
        <mxCell id="kJ3I6nF7hc7VAcNh-NyY-4" value="&lt;font style=&quot;font-size: 14px;&quot;&gt;$$X$$&lt;/font&gt;" style="text;html=1;align=center;verticalAlign=middle;resizable=0;points=[];autosize=1;strokeColor=none;fillColor=none;" parent="1" vertex="1">
          <mxGeometry x="120" y="280" width="60" height="30" as="geometry" />
        </mxCell>
        <mxCell id="kdzeQNz41wyLNduoqxcC-2" value="" style="rounded=0;whiteSpace=wrap;html=1;fillColor=#FFFFFF;" parent="1" vertex="1">
          <mxGeometry x="470" y="430" width="60" height="60" as="geometry" />
        </mxCell>
        <mxCell id="95zQ2OFygAg6jVkVz2Gs-2" value="" style="rounded=0;whiteSpace=wrap;html=1;fillColor=#FFFFFF;fontColor=#000000;strokeColor=#000000;" parent="1" vertex="1">
          <mxGeometry x="350" y="190" width="60" height="60" as="geometry" />
        </mxCell>
        <mxCell id="95zQ2OFygAg6jVkVz2Gs-3" value="&lt;font color=&quot;#000000&quot; style=&quot;font-size: 16px;&quot;&gt;$$G_3$$&lt;/font&gt;" style="rounded=0;whiteSpace=wrap;html=1;fillColor=#00FF00;fontColor=#ffffff;strokeColor=#000000;" parent="1" vertex="1">
          <mxGeometry x="410" y="430" width="60" height="60" as="geometry" />
        </mxCell>
        <mxCell id="WgFjQV42I6RuxJ_FOyev-1" value="" style="rounded=0;whiteSpace=wrap;html=1;fillColor=#FFFFFF;fontColor=#000000;strokeColor=#000000;" vertex="1" parent="1">
          <mxGeometry x="350" y="370" width="60" height="60" as="geometry" />
        </mxCell>
      </root>
    </mxGraphModel>
  </diagram>
</mxfile>
